<?xml version="1.0" encoding="utf-8"?>
<!-- Generator: Adobe Illustrator 16.0.4, SVG Export Plug-In . SVG Version: 6.00 Build 0)  -->
<!DOCTYPE svg PUBLIC "-//W3C//DTD SVG 1.1//EN" "http://www.w3.org/Graphics/SVG/1.1/DTD/svg11.dtd">
<svg version="1.1" xmlns="http://www.w3.org/2000/svg" xmlns:xlink="http://www.w3.org/1999/xlink" x="0px" y="0px" width="1920px"
	 height="1200px" viewBox="0 0 1920 1200" style="enable-background:new 0 0 1920 1200;" xml:space="preserve">
<style type="text/css">
<![CDATA[
	.st0{opacity:0.6;fill:#FFFFFF;}
	.st1{fill:#48B4E0;}
	.st2{fill:#ACB2BD;}
	.st3{fill:#E3F5FC;}
	.st4{fill:none;stroke:#E4E6EB;stroke-width:3.2126;stroke-miterlimit:10;}
	.st5{fill:#E8C28F;}
	.st6{fill:#806B4E;}
	.st7{fill:#BAC0CC;}
	.st8{fill:#F0C994;}
	.st9{fill:#F0CEA1;}
	.st10{fill:#F0D3AD;}
	.st11{fill:#5E4F39;}
	.st12{fill:#9297A1;}
	.st13{fill:url(#SVGID_1_);}
	.st14{fill:url(#SVGID_2_);}
	.st15{fill:url(#SVGID_3_);}
	.st16{fill:url(#SVGID_4_);}
	.st17{fill:url(#SVGID_5_);}
	.st18{fill:url(#SVGID_6_);}
	.st19{fill:url(#SVGID_7_);}
	.st20{fill:url(#SVGID_8_);}
	.st21{fill:url(#SVGID_9_);}
	.st22{fill:#C3CAD6;}
	.st23{fill:none;stroke:#E4E6EB;stroke-width:7.1213;stroke-miterlimit:10;}
	.st24{fill:none;stroke:#E4E6EB;stroke-width:3.7401;stroke-miterlimit:10;}
	.st25{fill:#9EA3AD;}
	.st26{fill:#CED5E3;}
	.st27{fill:none;stroke:#E4E6EB;stroke-width:5;stroke-miterlimit:10;}
	.st28{fill:#081217;}
	.st29{fill:url(#SVGID_10_);}
	.st30{fill:#A3A8B3;}
	.st31{fill:#0C1D24;}
	.st32{fill:#DAE2F0;}
]]>
</style>
<g id="Layer_1">
	<rect x="0" y="-0.1" class="st8" width="1920" height="1200"/>
	<radialGradient id="SVGID_1_" cx="801.9971" cy="207.6748" r="734.3515" gradientUnits="userSpaceOnUse">
		<stop  offset="0" style="stop-color:#F0DDC5"/>
		<stop  offset="1" style="stop-color:#F0C994"/>
	</radialGradient>
	<path class="st13" d="M1536.3,207.7c0,405.6-328.8,734.4-734.4,734.4C396.4,942,67.6,613.2,67.6,207.7
		c0-405.6,328.8-734.4,734.4-734.4C1207.6-526.7,1536.3-197.9,1536.3,207.7z"/>
	<linearGradient id="SVGID_2_" gradientUnits="userSpaceOnUse" x1="960.1216" y1="271.6748" x2="960.1215" y2="1201.0005">
		<stop  offset="0" style="stop-color:#E8C28F"/>
		<stop  offset="1" style="stop-color:#E8CCA7"/>
	</linearGradient>
	<polygon class="st14" points="-0.3,294.7 61.4,406.9 128.9,398.1 215.2,555.5 269,551.7 352.7,699.2 429,614.2 515.2,592.9 
		574,462.9 637.7,437.9 722.7,421.7 794,385.4 856.5,432.9 914,391.7 1004,295.4 1112.7,324.2 1161.5,271.7 1240.2,331.7 
		1295.2,441.7 1366.5,292.9 1440.2,516.7 1551.5,487.9 1681.2,765.7 1776.2,758.2 1836.2,811.9 1873.5,866.9 1920.5,817.2 
		1919.5,1201 0,1201 	"/>
	<circle class="st0" cx="802" cy="207.7" r="103.8"/>
</g>
<g id="Layer_2">
	<linearGradient id="SVGID_3_" gradientUnits="userSpaceOnUse" x1="959.7495" y1="521.75" x2="959.7495" y2="1201.0005">
		<stop  offset="0" style="stop-color:#D9B686"/>
		<stop  offset="0.531" style="stop-color:#D9C09E"/>
	</linearGradient>
	<polygon class="st15" points="1640.2,1114.5 1416.9,830.1 1408.5,785.8 1403.3,812.8 1246.5,613 1199.1,645.7 1195.5,626.8 
		1190.8,651.5 1178.4,660.1 1170.5,618.8 1160.3,672.6 1139.4,687 1136.5,671.8 1132.7,691.6 1105.2,710.6 991.9,666.9 987.5,643.8 
		983.7,663.7 974.5,660.2 969.5,633.8 965.2,656.6 957.6,653.6 948.5,605.8 940.6,647.1 780.6,585.4 771.5,537.8 767.5,558.7 
		760.5,521.8 750.6,573.8 700.1,554.4 623.6,607.5 615.5,564.8 604.9,620.5 429.8,742.2 421.5,698.8 410.7,755.5 376.4,779.3 
		368.5,737.8 358.2,791.9 189,909.5 -0.5,679.7 0,1201 1920,1201 	"/>
</g>
<g id="Layer_3">
	<linearGradient id="SVGID_4_" gradientUnits="userSpaceOnUse" x1="959.8745" y1="677.75" x2="959.8745" y2="1201">
		<stop  offset="0" style="stop-color:#C9A97C"/>
		<stop  offset="1" style="stop-color:#C9B69B"/>
	</linearGradient>
	<polygon class="st16" points="1602.3,1065.3 1596.1,1032.7 1591.8,1055.3 1580.1,993.7 1568.5,1054.9 1566.6,1054.3 1559.1,1014.7 
		1552.4,1049.9 1534,1044.2 1439,979.2 1405,1018.8 1394.1,961.7 1377.1,1051.1 1371.1,1058.1 1361.1,1005.7 1350.4,1062.3 
		1139.1,929.4 1125.1,855.7 1114.1,913.7 1111.3,911.9 1090.5,802.8 1074.2,888.6 1007.7,846.8 989,858.2 974.5,781.8 956.2,878.2 
		937.2,889.7 924.5,822.8 908.4,907.3 870.2,930.5 577.7,794.3 393.9,911.9 198.1,833.7 178.5,730.8 167.5,788.3 158.5,740.8 
		148.4,794 133.5,715.8 117.2,801.4 67.2,781.4 47.5,677.8 30.6,766.8 -0.2,754.5 0,1200.5 1919.5,1201 1920,1163 	"/>
</g>
<g id="Layer_4">
	<polygon class="st11" points="52.5,846.9 113.6,1168 -8.6,1168 	"/>
	<polygon class="st11" points="124.1,887.9 185.2,1209 63,1209 	"/>
	<polygon class="st11" points="1510.8,954.5 1551.2,1167 1470.4,1167 	"/>
	<path class="st6" d="M0,1120.5c119,26.3,505.2,67.5,624,63.8s510-90,643.8-102.5s612,88.7,652.2,97.5c0,11.2-0.5,21.8-0.5,21.8
		L0,1200.5V1120.5z"/>
</g>
<g id="Layer_5">
</g>
</svg>
