<?xml version="1.0" encoding="utf-8"?>
<!-- Generator: Adobe Illustrator 16.0.4, SVG Export Plug-In . SVG Version: 6.00 Build 0)  -->
<!DOCTYPE svg PUBLIC "-//W3C//DTD SVG 1.1//EN" "http://www.w3.org/Graphics/SVG/1.1/DTD/svg11.dtd">
<svg version="1.1" xmlns="http://www.w3.org/2000/svg" xmlns:xlink="http://www.w3.org/1999/xlink" x="0px" y="0px" width="1920px"
	 height="1200px" viewBox="0 0 1920 1200" style="enable-background:new 0 0 1920 1200;" xml:space="preserve">
<style type="text/css">
<![CDATA[
	.st0{opacity:0.6;fill:#FFFFFF;}
	.st1{fill:#48B4E0;}
	.st2{fill:#ACB2BD;}
	.st3{fill:#E3F5FC;}
	.st4{fill:none;stroke:#E4E6EB;stroke-width:3.2126;stroke-miterlimit:10;}
	.st5{fill:#E8C28F;}
	.st6{fill:#806B4E;}
	.st7{fill:#BAC0CC;}
	.st8{fill:#F0C994;}
	.st9{fill:#F0CEA1;}
	.st10{fill:#F0D3AD;}
	.st11{fill:#5E4F39;}
	.st12{fill:#9297A1;}
	.st13{fill:url(#SVGID_1_);}
	.st14{fill:url(#SVGID_2_);}
	.st15{fill:url(#SVGID_3_);}
	.st16{fill:url(#SVGID_4_);}
	.st17{fill:url(#SVGID_5_);}
	.st18{fill:url(#SVGID_6_);}
	.st19{fill:url(#SVGID_7_);}
	.st20{fill:url(#SVGID_8_);}
	.st21{fill:url(#SVGID_9_);}
	.st22{fill:#C3CAD6;}
	.st23{fill:none;stroke:#E4E6EB;stroke-width:7.1213;stroke-miterlimit:10;}
	.st24{fill:none;stroke:#E4E6EB;stroke-width:3.7401;stroke-miterlimit:10;}
	.st25{fill:#9EA3AD;}
	.st26{fill:#CED5E3;}
	.st27{fill:none;stroke:#E4E6EB;stroke-width:5;stroke-miterlimit:10;}
	.st28{fill:#081217;}
	.st29{fill:url(#SVGID_10_);}
	.st30{fill:#A3A8B3;}
	.st31{fill:#0C1D24;}
	.st32{fill:#DAE2F0;}
]]>
</style>
<g id="Layer_1">
	<linearGradient id="SVGID_1_" gradientUnits="userSpaceOnUse" x1="960" y1="1200.001" x2="959.9999" y2="4.882812e-04">
		<stop  offset="0" style="stop-color:#23556B"/>
		<stop  offset="1" style="stop-color:#132F3B"/>
	</linearGradient>
	<rect class="st13" width="1920" height="1200"/>
	<path class="st3" d="M1209.2,247.8c0-22.6,10.7-42.7,27.3-55.6c-11.9-9.2-26.8-14.7-43-14.7c-38.8,0-70.3,31.5-70.3,70.3
		s31.5,70.3,70.3,70.3c16.2,0,31.1-5.5,43-14.7C1219.9,290.5,1209.2,270.4,1209.2,247.8z"/>
	<linearGradient id="SVGID_2_" gradientUnits="userSpaceOnUse" x1="960.1279" y1="271.7505" x2="960.1279" y2="1201.0005">
		<stop  offset="0" style="stop-color:#1A404F"/>
		<stop  offset="1" style="stop-color:#163642"/>
	</linearGradient>
	<polygon class="st14" points="-0.2,294.8 61.4,407 128.9,398.1 215.2,555.6 269,551.8 352.7,699.3 429,614.3 515.3,593 574,463 
		637.8,438 722.8,421.8 794,385.5 856.5,433 914,391.8 1004,295.5 1112.8,324.3 1161.5,271.8 1240.3,331.8 1295.3,441.8 1366.5,293 
		1440.3,516.8 1551.5,488 1681.3,765.8 1776.3,758.2 1836.3,812 1873.5,867 1920.5,817.2 1919.5,1201 0,1201 	"/>
</g>
<g id="Layer_2">
	<linearGradient id="SVGID_3_" gradientUnits="userSpaceOnUse" x1="959.7529" y1="521.7505" x2="959.7529" y2="1201.0005">
		<stop  offset="0" style="stop-color:#122E38"/>
		<stop  offset="1" style="stop-color:#0C2129"/>
	</linearGradient>
	<polygon class="st15" points="1640.3,1114.5 1416.9,830.1 1408.5,785.8 1403.4,812.8 1246.5,613 1199.1,645.7 1195.5,626.8 
		1190.8,651.5 1178.4,660.1 1170.5,618.8 1160.3,672.6 1139.4,687 1136.5,671.8 1132.7,691.6 1105.3,710.6 991.9,666.9 987.5,643.8 
		983.7,663.7 974.5,660.2 969.5,633.8 965.2,656.6 957.6,653.6 948.5,605.8 940.6,647.1 780.6,585.4 771.5,537.8 767.5,558.7 
		760.5,521.8 750.6,573.8 700.1,554.4 623.6,607.5 615.5,564.8 604.9,620.5 429.8,742.2 421.5,698.8 410.7,755.5 376.4,779.3 
		368.5,737.8 358.2,791.9 189,909.5 -0.5,679.8 0,1201 1920,1201 	"/>
	<polygon class="st1" points="161,113.8 156.7,113.5 152.7,115 153,110.7 151.5,106.6 155.8,107 159.9,105.5 159.5,109.8 	"/>
	<polygon class="st1" points="249.5,75.7 246.8,75.5 244.3,76.5 244.5,73.7 243.5,71.2 246.2,71.4 248.8,70.5 248.6,73.2 	"/>
	<polygon class="st1" points="416,94.8 411.7,94.5 407.7,96 408,91.7 406.5,87.6 410.8,88 414.9,86.5 414.5,90.8 	"/>
	<polygon class="st1" points="438.5,166.9 436.3,166.7 434.1,167.5 434.3,165.2 433.5,163.1 435.8,163.3 437.9,162.5 437.7,164.7 	
		"/>
	<polygon class="st1" points="609.5,66.9 607.3,66.7 605.1,67.5 605.3,65.2 604.5,63.1 606.8,63.3 608.9,62.5 608.7,64.7 	"/>
	<polygon class="st1" points="1051.5,63.5 1047.9,63.2 1044.5,64.5 1044.8,60.8 1043.5,57.4 1047.1,57.7 1050.6,56.5 1050.3,60.1 	
		"/>
	<polygon class="st1" points="1109.5,129.6 1106.4,129.4 1103.4,130.5 1103.6,127.3 1102.5,124.3 1105.7,124.6 1108.7,123.5 
		1108.4,126.6 	"/>
	<polygon class="st1" points="1542,122.8 1537.7,122.5 1533.7,124 1534,119.7 1532.5,115.6 1536.8,116 1540.9,114.5 1540.5,118.8 	
		"/>
	<polygon class="st1" points="1609,182.8 1604.7,182.5 1600.7,184 1601,179.7 1599.5,175.6 1603.8,176 1607.9,174.5 1607.5,178.8 	
		"/>
	<polygon class="st1" points="1769,348.3 1773.3,349.2 1777.5,348.2 1776.6,352.4 1777.6,356.6 1773.4,355.8 1769.2,356.8 
		1770.1,352.5 	"/>
	<polygon class="st1" points="1676.7,375.7 1679.3,376.2 1682,375.6 1681.4,378.2 1682.1,380.9 1679.4,380.3 1676.8,381 
		1677.3,378.3 	"/>
	<polygon class="st1" points="1513.6,336.9 1517.8,337.8 1522,336.8 1521.2,341 1522.2,345.2 1517.9,344.4 1513.7,345.4 
		1514.6,341.1 	"/>
	<polygon class="st1" points="1499.8,262.7 1502,263.2 1504.2,262.7 1503.8,264.9 1504.3,267.1 1502.1,266.6 1499.9,267.2 
		1500.3,265 	"/>
	<polygon class="st1" points="1318.2,341.7 1320.4,342.2 1322.6,341.7 1322.1,343.9 1322.7,346.1 1320.4,345.6 1318.2,346.2 
		1318.7,343.9 	"/>
	<polygon class="st1" points="878.9,292.6 882.4,293.3 886,292.5 885.2,296 886.1,299.6 882.5,298.9 879,299.7 879.7,296.1 	"/>
	<polygon class="st1" points="829.1,220.1 832.3,220.7 835.3,220 834.7,223.1 835.5,226.2 832.3,225.5 829.2,226.3 829.9,223.2 	"/>
	<polygon class="st1" points="398.9,175.5 403.1,176.3 407.3,175.3 406.5,179.5 407.5,183.8 403.2,182.9 399,183.9 399.9,179.7 	"/>
	<polygon class="st1" points="339.5,107.9 343.7,108.8 347.9,107.8 347,112 348.1,116.2 343.8,115.4 339.6,116.4 340.5,112.1 	"/>
</g>
<g id="Layer_3">
	<linearGradient id="SVGID_4_" gradientUnits="userSpaceOnUse" x1="959.8779" y1="677.75" x2="959.8779" y2="1200.999">
		<stop  offset="0" style="stop-color:#0E232B"/>
		<stop  offset="1" style="stop-color:#0B1B21"/>
	</linearGradient>
	<polygon class="st16" points="1602.3,1065.3 1596.1,1032.7 1591.8,1055.3 1580.1,993.7 1568.5,1054.9 1566.7,1054.3 1559.1,1014.7 
		1552.4,1049.9 1534,1044.2 1439,979.2 1405,1018.8 1394.1,961.7 1377.1,1051.1 1371.1,1058.1 1361.1,1005.7 1350.4,1062.3 
		1139.1,929.4 1125.1,855.7 1114.1,913.7 1111.3,911.9 1090.5,802.8 1074.2,888.6 1007.7,846.8 989,858.2 974.5,781.8 956.2,878.2 
		937.2,889.7 924.5,822.8 908.4,907.3 870.2,930.5 577.7,794.3 393.9,911.9 198.1,833.7 178.5,730.8 167.6,788.3 158.5,740.8 
		148.4,794 133.5,715.8 117.2,801.4 67.2,781.4 47.5,677.8 30.6,766.8 -0.2,754.5 0,1200.5 1919.5,1201 1920,1163 	"/>
</g>
<g id="Layer_4">
	<polygon class="st28" points="52.5,846.9 113.6,1168 -8.6,1168 	"/>
	<polygon class="st28" points="124.1,887.9 185.2,1209 63,1209 	"/>
	<polygon class="st28" points="1510.8,954.5 1551.2,1167 1470.4,1167 	"/>
	<path class="st31" d="M0,1120.5c119,26.2,505.3,67.5,624,63.8s510-90,643.8-102.5s612,88.7,652.2,97.5c0,11.2-0.5,21.8-0.5,21.8
		L0,1200.5V1120.5z"/>
</g>
<g id="Layer_5">
</g>
</svg>
