<?xml version="1.0" encoding="utf-8"?>
<!-- Generator: Adobe Illustrator 16.0.4, SVG Export Plug-In . SVG Version: 6.00 Build 0)  -->
<!DOCTYPE svg PUBLIC "-//W3C//DTD SVG 1.1//EN" "http://www.w3.org/Graphics/SVG/1.1/DTD/svg11.dtd">
<svg version="1.1" xmlns="http://www.w3.org/2000/svg" xmlns:xlink="http://www.w3.org/1999/xlink" x="0px" y="0px" width="1920px"
	 height="1200px" viewBox="0 0 1920 1200" style="enable-background:new 0 0 1920 1200;" xml:space="preserve">
<style type="text/css">
<![CDATA[
	.st0{opacity:0.6;fill:#FFFFFF;}
	.st1{fill:#48B4E0;}
	.st2{fill:#ACB2BD;}
	.st3{fill:#E3F5FC;}
	.st4{fill:none;stroke:#E4E6EB;stroke-width:3.2126;stroke-miterlimit:10;}
	.st5{fill:#E8C28F;}
	.st6{fill:#806B4E;}
	.st7{fill:#BAC0CC;}
	.st8{fill:#F0C994;}
	.st9{fill:#F0CEA1;}
	.st10{fill:#F0D3AD;}
	.st11{fill:#5E4F39;}
	.st12{fill:#9297A1;}
	.st13{fill:url(#SVGID_1_);}
	.st14{fill:url(#SVGID_2_);}
	.st15{fill:url(#SVGID_3_);}
	.st16{fill:url(#SVGID_4_);}
	.st17{fill:url(#SVGID_5_);}
	.st18{fill:url(#SVGID_6_);}
	.st19{fill:url(#SVGID_7_);}
	.st20{fill:url(#SVGID_8_);}
	.st21{fill:url(#SVGID_9_);}
	.st22{fill:#C3CAD6;}
	.st23{fill:none;stroke:#E4E6EB;stroke-width:7.1213;stroke-miterlimit:10;}
	.st24{fill:none;stroke:#E4E6EB;stroke-width:3.7401;stroke-miterlimit:10;}
	.st25{fill:#6D7178;}
	.st26{fill:none;stroke:#E4E6EB;stroke-width:5;stroke-miterlimit:10;}
	.st27{fill:#081217;}
	.st28{fill:url(#SVGID_10_);}
	.st29{fill:url(#SVGID_11_);}
	.st30{fill:url(#SVGID_12_);}
	.st31{fill:url(#SVGID_13_);}
	.st32{fill:#A3A8B3;}
	.st33{fill:#0C1D24;}
]]>
</style>
<g id="Layer_1">
	<linearGradient id="SVGID_1_" gradientUnits="userSpaceOnUse" x1="960.0029" y1="1199.9951" x2="960.0029" y2="-4.394531e-03">
		<stop  offset="0" style="stop-color:#E0E0CC"/>
		<stop  offset="1" style="stop-color:#A9A5B5"/>
	</linearGradient>
	<rect x="0" y="0" class="st13" width="1920" height="1200"/>
	<path class="st32" d="M2094.8,385.7c0-0.5,0-1.1,0-1.6c0-35.6-34.5-65-79.3-69.8c-7.3-33.3-45.3-58.7-91-58.7
		c-50.9,0-92.2,31.6-92.2,70.5c0,0.1,0,0.2,0,0.3c-4.9-0.2-9.9-0.3-15-0.3c-59.6,0-108,14.1-108,31.5c0,8.3,10.9,15.8,28.7,21.4
		c-2-0.2-4.1-0.4-6.2-0.4c-27.3,0-49.5,21.5-49.5,48c0,0.5,0,1,0,1.5c-13.4,11.4-21,24.4-21,38.2c0,37.1,55.2,68.6,131.4,79.3
		c15.1,13.3,39.6,21.9,67.3,21.9c30.5,0,57.1-10.5,71.6-26.1c16.5-3.5,31.8-8,45.2-13.3c14.7,7,31.7,10.9,49.7,10.9
		c56.7,0,102.7-39.3,102.7-87.7C2129.3,425.2,2116,401.8,2094.8,385.7z"/>
	<path class="st32" d="M-150.6,345.9c0,0.5-0.1,1.1-0.1,1.6c-0.7,35.6,48.1,65.9,112.2,72c9.9,33.5,63.7,59.9,129.2,61.2
		c73,1.4,132.7-29,133.5-67.9c0-0.1,0-0.2,0-0.3c7,0.3,14.2,0.6,21.5,0.7c85.4,1.6,155-11.1,155.3-28.5c0.2-8.3-15.3-16.1-40.7-22.2
		c2.9,0.3,5.9,0.5,8.9,0.6c39.2,0.8,71.3-20.1,71.8-46.6c0-0.5,0-1,0-1.5c19.5-11.1,30.6-23.8,30.9-37.6
		c0.7-37.1-77.8-70.1-186.7-82.9c-21.4-13.7-56.4-23-96-23.8c-43.6-0.8-82,8.9-103.1,24.1c-23.8,3-45.6,7.1-65,12.1
		C0,199.4-24.2,195-50,194.5c-81.3-1.6-147.9,36.5-148.9,84.9C-199.3,305.5-180.7,329.3-150.6,345.9z"/>
	<path class="st2" d="M1535.8,221.1c-2,0-4,0-6,0.1c0-0.3,0-0.6,0-0.9c0-52.6-42.6-95.2-95.2-95.2c-29.5,0-55.8,13.4-73.3,34.4
		c-17.8-26.2-47.9-43.4-81.9-43.4c-13,0-25.4,2.5-36.7,7c-10.3-4.5-21.7-7-33.8-7c-9.5,0-18.5,1.6-26.9,4.4
		c-6.3-3.7-14.1-5.9-22.6-5.9c-20.7,0-37.5,13.1-37.5,29.2c0,8.5,4.7,16.2,12.1,21.5c-1,2.5-1.8,5.1-2.5,7.8c-1.5,0-2.9,0-4.4,0
		c-65,0-117.7,28.9-117.7,64.5c0,3.5,0.5,6.9,1.5,10.2c-48.3,10.5-79.5,27.2-79.5,46c0,31.9,90,57.7,201,57.7
		c6.7,0,13.2-0.1,19.7-0.3c-0.2,1.3-0.2,2.7-0.2,4c0,37.7,59.8,68.2,133.5,68.2c24.4,0,47.3-3.4,67-9.2c19.2,16,44,25.7,71,25.7
		c61.3,0,111-49.7,111-111c0-9.3-1.2-18.4-3.3-27.1c1.6,0,3.2,0.1,4.8,0.1c46.4,0,84-18.1,84-40.5S1582.2,221.1,1535.8,221.1z"/>
	<linearGradient id="SVGID_2_" gradientUnits="userSpaceOnUse" x1="960.1279" y1="271.7461" x2="960.1279" y2="1200.9995">
		<stop  offset="0" style="stop-color:#C3CAD6"/>
		<stop  offset="1" style="stop-color:#91959E"/>
	</linearGradient>
	<polygon class="st14" points="-0.2,294.7 61.4,407 128.9,398.1 215.2,555.6 269,551.8 352.7,699.3 429,614.3 515.3,593 574,463 
		637.8,438 722.8,421.7 794,385.5 856.5,433 914,391.7 1004,295.5 1112.8,324.2 1161.5,271.7 1240.3,331.7 1295.3,441.7 1366.5,293 
		1440.3,516.7 1551.5,488 1681.3,765.7 1776.3,758.2 1836.3,812 1873.5,867 1920.5,817.2 1919.5,1201 0,1201 	"/>
</g>
<g id="Layer_2">
	<linearGradient id="SVGID_3_" gradientUnits="userSpaceOnUse" x1="959.7529" y1="521.7505" x2="959.7529" y2="1200.9995">
		<stop  offset="0" style="stop-color:#CED5E3"/>
		<stop  offset="1" style="stop-color:#969CA6"/>
	</linearGradient>
	<polygon class="st15" points="1640.3,1114.5 1416.9,830.1 1408.5,785.8 1403.4,812.8 1246.5,613 1199.1,645.7 1195.5,626.8 
		1190.8,651.5 1178.4,660.1 1170.5,618.8 1160.3,672.6 1139.4,687 1136.5,671.8 1132.7,691.6 1105.3,710.6 991.9,666.9 987.5,643.8 
		983.7,663.7 974.5,660.2 969.5,633.8 965.2,656.6 957.6,653.6 948.5,605.8 940.6,647.1 780.6,585.4 771.5,537.8 767.5,558.7 
		760.5,521.8 750.6,573.8 700.1,554.4 623.6,607.5 615.5,564.8 604.9,620.5 429.8,742.2 421.5,698.8 410.7,755.5 376.4,779.3 
		368.5,737.8 358.2,791.9 189,909.5 -0.5,679.8 0,1201 1920,1201 	"/>
</g>
<g id="Layer_3">
	<linearGradient id="SVGID_4_" gradientUnits="userSpaceOnUse" x1="959.8779" y1="677.75" x2="959.8779" y2="1201">
		<stop  offset="0" style="stop-color:#DAE2F0"/>
		<stop  offset="1" style="stop-color:#8C9199"/>
	</linearGradient>
	<polygon class="st16" points="1602.3,1065.3 1596.1,1032.7 1591.8,1055.3 1580.1,993.7 1568.5,1054.9 1566.7,1054.3 1559.1,1014.7 
		1552.4,1049.9 1534,1044.2 1439,979.2 1405,1018.8 1394.1,961.7 1377.1,1051.1 1371.1,1058.1 1361.1,1005.7 1350.4,1062.3 
		1139.1,929.4 1125.1,855.7 1114.1,913.7 1111.3,911.9 1090.5,802.8 1074.2,888.6 1007.7,846.8 989,858.2 974.5,781.8 956.2,878.2 
		937.2,889.7 924.5,822.8 908.4,907.3 870.2,930.5 577.7,794.3 393.9,911.9 198.1,833.7 178.5,730.8 167.6,788.3 158.5,740.8 
		148.4,794 133.5,715.8 117.2,801.4 67.2,781.4 47.5,677.8 30.6,766.8 -0.2,754.5 0,1200.5 1919.5,1201 1920,1163 	"/>
</g>
<g id="Layer_4">
	<polygon class="st25" points="52.5,846.9 113.6,1168 -8.6,1168 	"/>
	<polygon class="st25" points="124.1,887.9 185.2,1209 63,1209 	"/>
	<polygon class="st25" points="1510.8,954.5 1551.2,1167 1470.4,1167 	"/>
	<path class="st7" d="M0,1120.5c119,26.2,505.3,67.5,624,63.8s510-90,643.8-102.5s612,88.7,652.2,97.5c0,11.2-0.5,21.8-0.5,21.8
		L0,1200.5V1120.5z"/>
</g>
<g id="Layer_5">
	<path class="st12" d="M681.8-66.3c0-0.5,0-1.1,0-1.6c0-35.6-34.5-65-79.3-69.8c-7.3-33.3-45.3-58.7-91-58.7
		c-50.9,0-92.2,31.6-92.2,70.5c0,0.1,0,0.2,0,0.3c-4.9-0.2-9.9-0.3-15-0.3c-59.6,0-108,14.1-108,31.5c0,8.3,10.9,15.8,28.7,21.4
		c-2-0.2-4.1-0.4-6.2-0.4c-27.3,0-49.5,21.5-49.5,48c0,0.5,0,1,0,1.5c-13.4,11.4-21,24.4-21,38.2c0,37.1,55.2,68.6,131.4,79.3
		c15.1,13.3,39.6,21.9,67.3,21.9c30.5,0,57.1-10.5,71.6-26.1c16.5-3.5,31.8-8,45.2-13.3c14.7,7,31.7,10.9,49.7,10.9
		c56.7,0,102.7-39.3,102.7-87.7C716.3-26.8,703-50.2,681.8-66.3z"/>
	<path class="st12" d="M298.8-49.3c0-0.5,0-1.1,0-1.6c0-35.6-34.5-65-79.3-69.8c-7.3-33.3-45.3-58.7-91-58.7
		c-50.9,0-92.2,31.6-92.2,70.5c0,0.1,0,0.2,0,0.3c-4.9-0.2-9.9-0.3-15-0.3c-59.6,0-108,14.1-108,31.5c0,8.3,10.9,15.8,28.7,21.4
		c-2-0.2-4.1-0.4-6.2-0.4c-27.3,0-49.5,21.5-49.5,48c0,0.5,0,1,0,1.5c-13.4,11.4-21,24.4-21,38.2c0,37.1,55.2,68.6,131.4,79.3
		c15.1,13.3,39.6,21.9,67.3,21.9c30.5,0,57.1-10.5,71.6-26.1c16.5-3.5,31.8-8,45.2-13.3c14.7,7,31.7,10.9,49.7,10.9
		c56.7,0,102.7-39.3,102.7-87.7C333.3-9.8,320-33.2,298.8-49.3z"/>
	<line class="st26" x1="118.6" y1="162.6" x2="324.6" y2="593.1"/>
	<line class="st26" x1="284.6" y1="343.6" x2="490.6" y2="774.1"/>
	<line class="st26" x1="229.6" y1="568.6" x2="435.6" y2="999.1"/>
	<line class="st26" x1="433.6" y1="-321.4" x2="639.6" y2="109.1"/>
	<line class="st26" x1="599.6" y1="-140.4" x2="805.6" y2="290.1"/>
	<line class="st26" x1="544.6" y1="84.6" x2="750.6" y2="515.1"/>
	<line class="st26" x1="1177.6" y1="192.6" x2="1383.6" y2="623.1"/>
	<line class="st26" x1="1315.6" y1="187.6" x2="1521.6" y2="618.1"/>
	<line class="st26" x1="1288.6" y1="598.6" x2="1494.6" y2="1029.1"/>
	<line class="st26" x1="892.6" y1="325.6" x2="1098.6" y2="756.1"/>
	<line class="st26" x1="1058.6" y1="506.6" x2="1264.6" y2="937.1"/>
	<line class="st26" x1="1003.6" y1="731.6" x2="1209.6" y2="1162.1"/>
	<line class="st4" x1="798.6" y1="308.6" x2="930.9" y2="585.2"/>
	<line class="st4" x1="905.3" y1="424.9" x2="1037.6" y2="701.5"/>
	<line class="st4" x1="869.9" y1="569.4" x2="1002.3" y2="846.1"/>
	<line class="st4" x1="404.6" y1="527.6" x2="536.9" y2="804.2"/>
	<line class="st4" x1="511.3" y1="643.9" x2="643.6" y2="920.5"/>
	<line class="st26" x1="129.6" y1="727.6" x2="335.6" y2="1158.1"/>
	<line class="st4" x1="411.3" y1="802.9" x2="543.6" y2="1079.5"/>
	<line class="st4" x1="475.9" y1="788.4" x2="608.3" y2="1065.1"/>
	<line class="st4" x1="431.6" y1="142.6" x2="563.9" y2="419.2"/>
	<line class="st4" x1="661.3" y1="508.9" x2="793.6" y2="785.5"/>
	<line class="st4" x1="502.9" y1="403.4" x2="635.3" y2="680.1"/>
	<line class="st4" x1="234.3" y1="509.9" x2="366.6" y2="786.5"/>
	<line class="st4" x1="75.9" y1="404.4" x2="208.3" y2="681.1"/>
	<line class="st23" x1="1421.8" y1="-43.4" x2="1714.6" y2="570.1"/>
	<line class="st24" x1="1719.6" y1="315.6" x2="1874.8" y2="637.1"/>
	<line class="st26" x1="1583.6" y1="545.6" x2="1789.6" y2="976.1"/>
</g>
</svg>
