<?xml version="1.0" encoding="utf-8"?>
<!-- Generator: Adobe Illustrator 16.0.4, SVG Export Plug-In . SVG Version: 6.00 Build 0)  -->
<!DOCTYPE svg PUBLIC "-//W3C//DTD SVG 1.1//EN" "http://www.w3.org/Graphics/SVG/1.1/DTD/svg11.dtd">
<svg version="1.1" xmlns="http://www.w3.org/2000/svg" xmlns:xlink="http://www.w3.org/1999/xlink" x="0px" y="0px" width="1920px"
	 height="1200px" viewBox="0 0 1920 1200" style="enable-background:new 0 0 1920 1200;" xml:space="preserve">
<style type="text/css">
<![CDATA[
	.st0{opacity:0.6;fill:#FFFFFF;}
	.st1{fill:#48B4E0;}
	.st2{fill:#ACB2BD;}
	.st3{fill:#E3F5FC;}
	.st4{fill:#E4E6EB;}
	.st5{fill:none;stroke:#E4E6EB;stroke-width:3.2126;stroke-miterlimit:10;}
	.st6{fill:#806B4E;}
	.st7{fill:#BAC0CC;}
	.st8{fill:#F0C994;}
	.st9{fill:#5E4F39;}
	.st10{fill:#9297A1;}
	.st11{fill:url(#SVGID_1_);}
	.st12{fill:url(#SVGID_2_);}
	.st13{fill:url(#SVGID_3_);}
	.st14{fill:url(#SVGID_4_);}
	.st15{fill:url(#SVGID_5_);}
	.st16{fill:url(#SVGID_6_);}
	.st17{fill:url(#SVGID_7_);}
	.st18{fill:url(#SVGID_8_);}
	.st19{fill:url(#SVGID_9_);}
	.st20{fill:none;stroke:#E4E6EB;stroke-width:7.1213;stroke-miterlimit:10;}
	.st21{fill:none;stroke:#E4E6EB;stroke-width:3.7401;stroke-miterlimit:10;}
	.st22{display:none;fill:none;}
	.st23{fill:#FFFFFF;}
	.st24{fill:#6D7178;}
	.st25{fill:none;stroke:#E4E6EB;stroke-width:5;stroke-miterlimit:10;}
	.st26{fill:#081217;}
	.st27{fill:url(#SVGID_10_);}
	.st28{fill:url(#SVGID_11_);}
	.st29{fill:url(#SVGID_12_);}
	.st30{fill:url(#SVGID_13_);}
	.st31{fill:url(#SVGID_14_);}
	.st32{fill:url(#SVGID_15_);}
	.st33{fill:url(#SVGID_16_);}
	.st34{fill:url(#SVGID_17_);}
	.st35{fill:url(#SVGID_18_);}
	.st36{fill:url(#SVGID_19_);}
	.st37{fill:url(#SVGID_20_);}
	.st38{fill:url(#SVGID_21_);}
	.st39{fill:url(#SVGID_22_);}
	.st40{fill:url(#SVGID_23_);}
	.st41{fill:url(#SVGID_24_);}
	.st42{fill:url(#SVGID_25_);}
	.st43{fill:url(#SVGID_26_);}
	.st44{fill:url(#SVGID_27_);}
	.st45{fill:url(#SVGID_28_);}
	.st46{fill:url(#SVGID_29_);}
	.st47{fill:url(#SVGID_30_);}
	.st48{fill:url(#SVGID_31_);}
	.st49{fill:url(#SVGID_32_);}
	.st50{fill:url(#SVGID_33_);}
	.st51{fill:url(#SVGID_34_);}
	.st52{fill:#A3A8B3;}
	.st53{fill:#0C1D24;}
]]>
</style>
<g id="Layer_1">
	
		<linearGradient id="SVGID_1_" gradientUnits="userSpaceOnUse" x1="-4292.9966" y1="1199.9951" x2="-4292.9966" y2="-3.906250e-03" gradientTransform="matrix(-1 0 0 1 -3333.5156 0)">
		<stop  offset="0" style="stop-color:#FFFFFF"/>
		<stop  offset="1" style="stop-color:#969696"/>
	</linearGradient>
	<rect x="-0.5" y="0" class="st11" width="1920" height="1200"/>
	<path class="st52" d="M-175.3,385.7c0-0.5,0-1.1,0-1.6c0-35.6,34.5-65,79.3-69.8c7.3-33.3,45.3-58.7,91-58.7
		c50.9,0,92.2,31.6,92.2,70.5c0,0.1,0,0.2,0,0.3c4.9-0.2,9.9-0.3,15-0.3c59.6,0,108,14.1,108,31.5c0,8.3-10.9,15.8-28.7,21.4
		c2-0.2,4.1-0.4,6.2-0.4c27.3,0,49.5,21.5,49.5,48c0,0.5,0,1,0,1.5c13.4,11.4,21,24.4,21,38.2c0,37.1-55.2,68.6-131.4,79.3
		c-15.1,13.3-39.6,21.9-67.3,21.9c-30.5,0-57.1-10.5-71.6-26.1c-16.5-3.5-31.8-8-45.2-13.3c-14.7,7-31.7,10.9-49.7,10.9
		c-56.7,0-102.7-39.3-102.7-87.7C-209.8,425.2-196.5,401.8-175.3,385.7z"/>
	<path class="st52" d="M2070.1,345.9c0,0.5,0.1,1.1,0.1,1.6c0.7,35.6-48.1,65.9-112.2,72c-9.9,33.5-63.7,59.9-129.2,61.2
		c-73,1.4-132.7-29-133.5-67.9c0-0.1,0-0.2,0-0.3c-7,0.3-14.2,0.6-21.5,0.7c-85.4,1.6-155-11.1-155.3-28.5
		c-0.2-8.3,15.3-16.1,40.7-22.2c-2.9,0.3-5.9,0.5-8.9,0.6c-39.2,0.8-71.3-20.1-71.8-46.6c0-0.5,0-1,0-1.5
		c-19.5-11.1-30.6-23.8-30.9-37.6c-0.7-37.1,77.8-70.1,186.7-82.9c21.4-13.7,56.4-23,96-23.8c43.6-0.8,82,8.9,103.1,24.1
		c23.8,3,45.6,7.1,65,12.1c21-7.4,45.1-11.8,70.9-12.3c81.3-1.6,147.9,36.5,148.9,84.9C2118.8,305.5,2100.1,329.3,2070.1,345.9z"/>
	<path class="st2" d="M383.6,221.1c2,0,4,0,6,0.1c0-0.3,0-0.6,0-0.9c0-52.6,42.6-95.2,95.2-95.2c29.5,0,55.8,13.4,73.3,34.4
		c17.8-26.2,47.9-43.4,81.9-43.4c13,0,25.4,2.5,36.7,7c10.3-4.5,21.7-7,33.8-7c9.5,0,18.5,1.6,26.9,4.4c6.3-3.7,14.1-5.9,22.6-5.9
		c20.7,0,37.5,13.1,37.5,29.2c0,8.5-4.7,16.2-12.1,21.5c1,2.5,1.8,5.1,2.5,7.8c1.5,0,2.9,0,4.4,0c65,0,117.7,28.9,117.7,64.5
		c0,3.5-0.5,6.9-1.5,10.2c48.3,10.5,79.5,27.2,79.5,46c0,31.9-90,57.7-201,57.7c-6.7,0-13.2-0.1-19.7-0.3c0.2,1.3,0.2,2.7,0.2,4
		c0,37.7-59.8,68.2-133.5,68.2c-24.4,0-47.3-3.4-67-9.2c-19.2,16-44,25.7-71,25.7c-61.3,0-111-49.7-111-111c0-9.3,1.2-18.4,3.3-27.1
		c-1.6,0-3.2,0.1-4.8,0.1c-46.4,0-84-18.1-84-40.5S337.2,221.1,383.6,221.1z"/>
	
		<linearGradient id="SVGID_2_" gradientUnits="userSpaceOnUse" x1="-4292.8726" y1="271.7461" x2="-4292.8726" y2="1201" gradientTransform="matrix(-1 0 0 1 -3333.5156 0)">
		<stop  offset="0" style="stop-color:#C3CAD6"/>
		<stop  offset="1" style="stop-color:#91959E"/>
	</linearGradient>
	<polygon class="st12" points="1919.7,294.7 1858.1,407 1790.5,398.1 1704.3,555.6 1650.5,551.8 1566.7,699.3 1490.5,614.3 
		1404.2,593 1345.5,463 1281.7,438 1196.7,421.7 1125.5,385.5 1063,433 1005.5,391.7 915.5,295.5 806.7,324.2 758,271.7 
		679.2,331.7 624.2,441.7 553,293 479.2,516.7 368,488 238.2,765.7 143.2,758.2 83.2,812 46,867 -1,817.2 0,1201 1919.5,1201 	"/>
	<path class="st4" d="M1324.8,515.2l-71-12.4l-49.8-22l-75.4,7.3l-37.3,36.6l-24.9-41.7l-38.1,41c0,0-156.7-81.3-160.3-79.8
		s-73.9,45.4-79.8,43.9s-35.9-32.2-40.3-29.3s-63,54.9-67.3,58.6s-46.1-10.2-52-6.6s-105.4,71-105.4,71l-41.7-40.3l-67.3,93
		L313.8,666l-52.7,52l-0.3-0.4L368,488l111.2,28.8L553,293l71.2,148.8l55-110l78.8-60l48.8,52.5l108.8-28.8l90,96.2L1063,433
		l62.5-47.5l71.2,36.2l85,16.2l63.8,25l45.4,100.4L1324.8,515.2z"/>
	
		<linearGradient id="SVGID_3_" gradientUnits="userSpaceOnUse" x1="-3848.8613" y1="581.8125" x2="-3848.8613" y2="292.9961" gradientTransform="matrix(-1 0 0 1 -3333.5156 0)">
		<stop  offset="0" style="stop-color:#CED5E3"/>
		<stop  offset="1" style="stop-color:#DFE3EB"/>
	</linearGradient>
	<path class="st13" d="M479.2,516.7L553,293l0.8,1.7l-30.5,287c-0.1,0.1-0.2,0.1-0.2,0.1l-41.7-40.3l-4.6-25.4L479.2,516.7z"/>
	
		<linearGradient id="SVGID_4_" gradientUnits="userSpaceOnUse" x1="-4090.833" y1="395.1309" x2="-3958.8057" y2="395.1309" gradientTransform="matrix(-1 0 0 1 -3333.5156 0)">
		<stop  offset="0" style="stop-color:#CED5E3"/>
		<stop  offset="1" style="stop-color:#DFE3EB"/>
	</linearGradient>
	<path class="st14" d="M625.3,439.6l53.9-107.9l78.1-59.5l-49.7,73.8l-26.6,170.9c-0.2,0.2-0.4,0.3-0.5,0.4c-4.1,3.4-40-8.2-50-7.1
		L625.3,439.6z"/>
	
		<linearGradient id="SVGID_5_" gradientUnits="userSpaceOnUse" x1="-4185.292" y1="488.1426" x2="-4185.292" y2="295.5264" gradientTransform="matrix(-1 0 0 1 -3333.5156 0)">
		<stop  offset="0" style="stop-color:#CED5E3"/>
		<stop  offset="1" style="stop-color:#DFE3EB"/>
	</linearGradient>
	<path class="st15" d="M788.2,488.1l18.5-163.9l108.6-28.7L868,444.2C864.3,445.6,794.1,489.5,788.2,488.1z"/>
	
		<linearGradient id="SVGID_6_" gradientUnits="userSpaceOnUse" x1="-4428.4619" y1="524.7109" x2="-4428.4619" y2="385.4961" gradientTransform="matrix(-1 0 0 1 -3333.5156 0)">
		<stop  offset="0" style="stop-color:#CED5E3"/>
		<stop  offset="1" style="stop-color:#DFE3EB"/>
	</linearGradient>
	<polygon class="st16" points="1065.6,483.8 1064.4,431.9 1125.5,385.5 1125.5,385.5 1091.2,524.7 1066.4,483 	"/>
	
		<linearGradient id="SVGID_7_" gradientUnits="userSpaceOnUse" x1="-3647.0264" y1="717.9766" x2="-3647.0264" y2="492.2129" gradientTransform="matrix(-1 0 0 1 -3333.5156 0)">
		<stop  offset="0" style="stop-color:#CED5E3"/>
		<stop  offset="1" style="stop-color:#DFE3EB"/>
	</linearGradient>
	<polygon class="st17" points="261.1,718 261,717.9 283.1,669.8 366,492.2 315.5,665.5 313.8,666 	"/>
</g>
<g id="Layer_2">
	<linearGradient id="SVGID_8_" gradientUnits="userSpaceOnUse" x1="959.7529" y1="521.75" x2="959.7529" y2="1201">
		<stop  offset="0" style="stop-color:#E0E0E0"/>
		<stop  offset="1" style="stop-color:#969CA6"/>
	</linearGradient>
	<polygon class="st18" points="1640.3,1114.5 1416.9,830.1 1408.5,785.8 1403.4,812.8 1246.5,613 1199.1,645.7 1195.5,626.8 
		1190.8,651.5 1178.4,660.1 1170.5,618.8 1160.3,672.6 1139.4,687 1136.5,671.8 1132.7,691.6 1105.3,710.6 991.9,666.9 987.5,643.8 
		983.7,663.7 974.5,660.2 969.5,633.8 965.2,656.6 957.6,653.6 948.5,605.8 940.6,647.1 780.6,585.4 771.5,537.8 767.5,558.7 
		760.5,521.8 750.6,573.8 700.1,554.4 623.6,607.5 615.5,564.8 604.9,620.5 429.8,742.2 421.5,698.8 410.7,755.5 376.4,779.3 
		368.5,737.8 358.2,791.9 189,909.5 -0.5,679.8 0,1201 1920,1201 	"/>
</g>
<g id="Layer_3">
	<linearGradient id="SVGID_9_" gradientUnits="userSpaceOnUse" x1="959.8779" y1="677.75" x2="959.8779" y2="1201">
		<stop  offset="0" style="stop-color:#FCFCFC"/>
		<stop  offset="0.1611" style="stop-color:#F7F7F7"/>
		<stop  offset="0.3647" style="stop-color:#E7E8E9"/>
		<stop  offset="0.5911" style="stop-color:#CDCFD3"/>
		<stop  offset="0.8323" style="stop-color:#A9ADB3"/>
		<stop  offset="1" style="stop-color:#8C9199"/>
	</linearGradient>
	<polygon class="st19" points="1602.3,1065.3 1596.1,1032.7 1591.8,1055.3 1580.1,993.7 1568.5,1054.9 1566.7,1054.3 1559.1,1014.7 
		1552.4,1049.9 1534,1044.2 1439,979.2 1405,1018.8 1394.1,961.7 1377.1,1051.1 1371.1,1058.1 1361.1,1005.7 1350.4,1062.3 
		1139.1,929.4 1125.1,855.7 1114.1,913.7 1111.3,911.9 1090.5,802.8 1074.2,888.6 1007.7,846.8 989,858.2 974.5,781.8 956.2,878.2 
		937.2,889.7 924.5,822.8 908.4,907.3 870.2,930.5 577.7,794.3 393.9,911.9 198.1,833.7 178.5,730.8 167.6,788.3 158.5,740.8 
		148.4,794 133.5,715.8 117.2,801.4 67.2,781.4 47.5,677.8 30.6,766.8 -0.2,754.5 0,1200.5 1919.5,1201 1920,1163 	"/>
</g>
<g id="Layer_4">
	<polygon class="st24" points="52.5,846.9 113.6,1168 -8.6,1168 	"/>
	<polygon class="st24" points="124.1,887.9 185.2,1209 63,1209 	"/>
	<polygon class="st24" points="1510.8,954.5 1551.2,1167 1470.4,1167 	"/>
	<path class="st7" d="M0,1120.5c119,26.2,505.3,67.5,624,63.8s510-90,643.8-102.5s612,88.7,652.2,97.5c0,11.2-0.5,21.8-0.5,21.8
		L0,1200.5V1120.5z"/>
	<polygon class="st23" points="77.6,979 52.5,846.9 27.3,979 	"/>
	<polygon class="st23" points="124.1,887.9 99.9,1015 148.3,1015 	"/>
	<polygon class="st23" points="1527.7,1043 1510.8,954.5 1494,1043 	"/>
	<path class="st23" d="M1267.8,1081.8c-133.8,12.5-525,98.8-643.8,102.5s-505-37.5-624-63.8v22.8c126.6,13.9,579.4,56.7,579.4,56.7
		s720.4-36,725.7-36s272.1,1.8,279.3,5.3c5,2.5,178.6,21,280.2,31.6l55,0c0,0,0.5-10.5,0.5-21.8
		C1879.8,1170.5,1401.5,1069.2,1267.8,1081.8z"/>
</g>
<g id="Layer_5">
	<line class="st25" x1="-73.4" y1="-177.4" x2="132.6" y2="253.1"/>
	<line class="st25" x1="92.6" y1="3.6" x2="298.6" y2="434.1"/>
	<line class="st25" x1="37.6" y1="228.6" x2="243.6" y2="659.1"/>
	<line class="st25" x1="352.6" y1="-255.4" x2="558.6" y2="175.1"/>
	<line class="st25" x1="985.6" y1="-147.4" x2="1191.6" y2="283.1"/>
	<line class="st25" x1="1123.6" y1="-152.4" x2="1329.6" y2="278.1"/>
	<line class="st25" x1="1096.6" y1="258.6" x2="1302.6" y2="689.1"/>
	<line class="st25" x1="700.6" y1="-14.4" x2="906.6" y2="416.1"/>
	<line class="st25" x1="866.6" y1="166.6" x2="1072.6" y2="597.1"/>
	<line class="st25" x1="811.6" y1="391.6" x2="1017.6" y2="822.1"/>
	<line class="st5" x1="606.6" y1="-31.4" x2="738.9" y2="245.2"/>
	<line class="st5" x1="713.3" y1="84.9" x2="845.6" y2="361.5"/>
	<line class="st5" x1="677.9" y1="229.4" x2="810.3" y2="506.1"/>
	<line class="st5" x1="212.6" y1="187.6" x2="344.9" y2="464.2"/>
	<line class="st5" x1="319.3" y1="303.9" x2="451.6" y2="580.5"/>
	<line class="st25" x1="-62.4" y1="387.6" x2="143.6" y2="818.1"/>
	<line class="st5" x1="219.3" y1="462.9" x2="351.6" y2="739.5"/>
	<line class="st5" x1="283.9" y1="448.4" x2="416.3" y2="725.1"/>
	<line class="st5" x1="239.6" y1="-197.4" x2="371.9" y2="79.2"/>
	<line class="st5" x1="469.3" y1="168.9" x2="601.6" y2="445.5"/>
	<line class="st5" x1="310.9" y1="63.4" x2="443.3" y2="340.1"/>
	<line class="st5" x1="42.3" y1="169.9" x2="174.6" y2="446.5"/>
	<line class="st5" x1="-116.1" y1="64.4" x2="16.3" y2="341.1"/>
	<line class="st20" x1="1229.8" y1="-383.4" x2="1522.6" y2="230.1"/>
	<line class="st21" x1="1527.6" y1="-24.4" x2="1682.8" y2="297.1"/>
	<line class="st25" x1="1391.6" y1="205.6" x2="1597.6" y2="636.1"/>
	<line class="st25" x1="330.6" y1="282.6" x2="536.6" y2="713.1"/>
	<line class="st25" x1="496.6" y1="463.6" x2="702.6" y2="894.1"/>
	<line class="st25" x1="441.6" y1="688.6" x2="647.6" y2="1119.1"/>
	<line class="st25" x1="645.6" y1="-201.4" x2="851.6" y2="229.1"/>
	<line class="st25" x1="811.6" y1="-20.4" x2="1017.6" y2="410.1"/>
	<line class="st25" x1="756.6" y1="204.6" x2="962.6" y2="635.1"/>
	<line class="st25" x1="1389.6" y1="312.6" x2="1595.6" y2="743.1"/>
	<line class="st25" x1="1527.6" y1="307.6" x2="1733.6" y2="738.1"/>
	<line class="st25" x1="1500.6" y1="718.6" x2="1706.6" y2="1149.1"/>
	<line class="st25" x1="1104.6" y1="445.6" x2="1310.6" y2="876.1"/>
	<line class="st25" x1="1270.6" y1="626.6" x2="1476.6" y2="1057.1"/>
	<line class="st25" x1="1215.6" y1="851.6" x2="1421.6" y2="1282.1"/>
	<line class="st5" x1="1010.6" y1="428.6" x2="1142.9" y2="705.2"/>
	<line class="st5" x1="1117.3" y1="544.9" x2="1249.6" y2="821.5"/>
	<line class="st5" x1="1081.9" y1="689.4" x2="1214.3" y2="966.1"/>
	<line class="st5" x1="616.6" y1="647.6" x2="748.9" y2="924.2"/>
	<line class="st5" x1="723.3" y1="763.9" x2="855.6" y2="1040.5"/>
	<line class="st25" x1="341.6" y1="847.6" x2="547.6" y2="1278.1"/>
	<line class="st5" x1="623.3" y1="922.9" x2="755.6" y2="1199.5"/>
	<line class="st5" x1="687.9" y1="908.4" x2="820.3" y2="1185.1"/>
	<line class="st5" x1="643.6" y1="262.6" x2="775.9" y2="539.2"/>
	<line class="st5" x1="873.3" y1="628.9" x2="1005.6" y2="905.5"/>
	<line class="st5" x1="714.9" y1="523.4" x2="847.3" y2="800.1"/>
	<line class="st5" x1="446.3" y1="629.9" x2="578.6" y2="906.5"/>
	<line class="st5" x1="287.9" y1="524.4" x2="420.3" y2="801.1"/>
	<line class="st20" x1="1633.8" y1="76.6" x2="1926.6" y2="690.1"/>
	<line class="st25" x1="1795.6" y1="665.6" x2="2001.6" y2="1096.1"/>
</g>
</svg>
