<?xml version="1.0" encoding="utf-8"?>
<!-- Generator: Adobe Illustrator 16.0.4, SVG Export Plug-In . SVG Version: 6.00 Build 0)  -->
<!DOCTYPE svg PUBLIC "-//W3C//DTD SVG 1.1//EN" "http://www.w3.org/Graphics/SVG/1.1/DTD/svg11.dtd">
<svg version="1.1" xmlns="http://www.w3.org/2000/svg" xmlns:xlink="http://www.w3.org/1999/xlink" x="0px" y="0px" width="1920px"
	 height="1200px" viewBox="0 0 1920 1200" style="enable-background:new 0 0 1920 1200;" xml:space="preserve">
<style type="text/css">
<![CDATA[
	.st0{opacity:0.6;fill:#FFFFFF;}
	.st1{fill:#48B4E0;}
	.st2{fill:#ACB2BD;}
	.st3{fill:#E3F5FC;}
	.st4{fill:#E4E6EB;}
	.st5{fill:none;stroke:#E4E6EB;stroke-width:3.2126;stroke-miterlimit:10;}
	.st6{fill:#806B4E;}
	.st7{fill:#BAC0CC;}
	.st8{fill:#F0C994;}
	.st9{fill:#5E4F39;}
	.st10{fill:#9297A1;}
	.st11{fill:url(#SVGID_1_);}
	.st12{fill:url(#SVGID_2_);}
	.st13{fill:url(#SVGID_3_);}
	.st14{fill:url(#SVGID_4_);}
	.st15{fill:url(#SVGID_5_);}
	.st16{fill:url(#SVGID_6_);}
	.st17{fill:url(#SVGID_7_);}
	.st18{fill:url(#SVGID_8_);}
	.st19{fill:url(#SVGID_9_);}
	.st20{fill:none;stroke:#E4E6EB;stroke-width:7.1213;stroke-miterlimit:10;}
	.st21{fill:none;stroke:#E4E6EB;stroke-width:3.7401;stroke-miterlimit:10;}
	.st22{display:none;fill:none;}
	.st23{fill:#FFFFFF;}
	.st24{fill:#6D7178;}
	.st25{fill:none;stroke:#E4E6EB;stroke-width:5;stroke-miterlimit:10;}
	.st26{fill:#081217;}
	.st27{fill:url(#SVGID_10_);}
	.st28{fill:url(#SVGID_11_);}
	.st29{fill:url(#SVGID_12_);}
	.st30{fill:url(#SVGID_13_);}
	.st31{fill:url(#SVGID_14_);}
	.st32{fill:url(#SVGID_15_);}
	.st33{fill:url(#SVGID_16_);}
	.st34{fill:url(#SVGID_17_);}
	.st35{fill:url(#SVGID_18_);}
	.st36{fill:url(#SVGID_19_);}
	.st37{fill:url(#SVGID_20_);}
	.st38{fill:url(#SVGID_21_);}
	.st39{fill:url(#SVGID_22_);}
	.st40{fill:url(#SVGID_23_);}
	.st41{fill:url(#SVGID_24_);}
	.st42{fill:url(#SVGID_25_);}
	.st43{fill:url(#SVGID_26_);}
	.st44{fill:url(#SVGID_27_);}
	.st45{fill:url(#SVGID_28_);}
	.st46{fill:url(#SVGID_29_);}
	.st47{fill:url(#SVGID_30_);}
	.st48{fill:url(#SVGID_31_);}
	.st49{fill:url(#SVGID_32_);}
	.st50{fill:url(#SVGID_33_);}
	.st51{fill:url(#SVGID_34_);}
	.st52{fill:#A3A8B3;}
	.st53{fill:#0C1D24;}
]]>
</style>
<symbol  id="New_Symbol" viewBox="-15 -14.1 30 28.3">
	<polygon class="st23" points="0,-14.1 -14.1,0 0,14.1 14.1,0 	"/>
	<polygon class="st22" points="-15,14 15,14 15,-14 -15,-14 	"/>
</symbol>
<g id="Layer_1">
	
		<linearGradient id="SVGID_1_" gradientUnits="userSpaceOnUse" x1="971.0029" y1="1199.9961" x2="971.0029" y2="-3.906250e-03" gradientTransform="matrix(-1 0 0 1 1930.4844 0)">
		<stop  offset="0" style="stop-color:#FFFFFF"/>
		<stop  offset="1" style="stop-color:#969696"/>
	</linearGradient>
	<rect x="-0.5" y="0" class="st11" width="1920" height="1200"/>
	<path class="st52" d="M-175.3,385.7c0-0.5,0-1.1,0-1.6c0-35.6,34.5-65,79.3-69.8c7.3-33.3,45.3-58.7,91-58.7
		c50.9,0,92.2,31.6,92.2,70.5c0,0.1,0,0.2,0,0.3c4.9-0.2,9.9-0.3,15-0.3c59.6,0,108,14.1,108,31.5c0,8.3-10.9,15.8-28.7,21.4
		c2-0.2,4.1-0.4,6.2-0.4c27.3,0,49.5,21.5,49.5,48c0,0.5,0,1,0,1.5c13.4,11.4,21,24.4,21,38.2c0,37.1-55.2,68.6-131.4,79.3
		c-15.1,13.3-39.6,21.9-67.3,21.9c-30.5,0-57.1-10.5-71.6-26.1c-16.5-3.5-31.8-8-45.2-13.3c-14.7,7-31.7,10.9-49.7,10.9
		c-56.7,0-102.7-39.3-102.7-87.7C-209.8,425.2-196.5,401.8-175.3,385.7z"/>
	<path class="st52" d="M2070.1,345.9c0,0.5,0.1,1.1,0.1,1.6c0.7,35.6-48.1,65.9-112.2,72c-9.9,33.5-63.7,59.9-129.2,61.2
		c-73,1.4-132.7-29-133.5-67.9c0-0.1,0-0.2,0-0.3c-7,0.3-14.2,0.6-21.5,0.7c-85.4,1.6-155-11.1-155.3-28.5
		c-0.2-8.3,15.3-16.1,40.7-22.2c-2.9,0.3-5.9,0.5-8.9,0.6c-39.2,0.8-71.3-20.1-71.8-46.6c0-0.5,0-1,0-1.5
		c-19.5-11.1-30.6-23.8-30.9-37.6c-0.7-37.1,77.8-70.1,186.7-82.9c21.4-13.7,56.4-23,96-23.8c43.6-0.8,82,8.9,103.1,24.1
		c23.8,3,45.6,7.1,65,12.1c21-7.4,45.1-11.8,70.9-12.3c81.3-1.6,147.9,36.5,148.9,84.9C2118.8,305.5,2100.1,329.3,2070.1,345.9z"/>
	<path class="st2" d="M383.6,221.1c2,0,4,0,6,0.1c0-0.3,0-0.6,0-0.9c0-52.6,42.6-95.2,95.2-95.2c29.5,0,55.8,13.4,73.3,34.4
		c17.8-26.2,47.9-43.4,81.9-43.4c13,0,25.4,2.5,36.7,7c10.3-4.5,21.7-7,33.8-7c9.5,0,18.5,1.6,26.9,4.4c6.3-3.7,14.1-5.9,22.6-5.9
		c20.7,0,37.5,13.1,37.5,29.2c0,8.5-4.7,16.2-12.1,21.5c1,2.5,1.8,5.1,2.5,7.8c1.5,0,2.9,0,4.4,0c65,0,117.7,28.9,117.7,64.5
		c0,3.5-0.5,6.9-1.5,10.2c48.3,10.5,79.5,27.2,79.5,46c0,31.9-90,57.7-201,57.7c-6.7,0-13.2-0.1-19.7-0.3c0.2,1.3,0.2,2.7,0.2,4
		c0,37.7-59.8,68.2-133.5,68.2c-24.4,0-47.3-3.4-67-9.2c-19.2,16-44,25.7-71,25.7c-61.3,0-111-49.7-111-111c0-9.3,1.2-18.4,3.3-27.1
		c-1.6,0-3.2,0.1-4.8,0.1c-46.4,0-84-18.1-84-40.5S337.2,221.1,383.6,221.1z"/>
	
		<linearGradient id="SVGID_2_" gradientUnits="userSpaceOnUse" x1="971.1279" y1="271.7451" x2="971.1279" y2="1201" gradientTransform="matrix(-1 0 0 1 1930.4844 0)">
		<stop  offset="0" style="stop-color:#C3CAD6"/>
		<stop  offset="1" style="stop-color:#91959E"/>
	</linearGradient>
	<polygon class="st12" points="1919.7,294.7 1858.1,407 1790.5,398.1 1704.3,555.6 1650.5,551.8 1566.7,699.3 1490.5,614.3 
		1404.2,593 1345.5,463 1281.7,438 1196.7,421.7 1125.5,385.5 1063,433 1005.5,391.7 915.5,295.5 806.7,324.2 758,271.7 
		679.2,331.7 624.2,441.7 553,293 479.2,516.7 368,488 238.2,765.7 143.2,758.2 83.2,812 46,867 -1,817.2 0,1201 1919.5,1201 	"/>
	<path class="st4" d="M1324.8,515.2l-71-12.4l-49.8-22l-75.4,7.3l-37.3,36.6l-24.9-41.7l-38.1,41c0,0-156.7-81.3-160.3-79.8
		s-73.9,45.4-79.8,43.9s-35.9-32.2-40.3-29.3s-63,54.9-67.3,58.6s-46.1-10.2-52-6.6s-105.4,71-105.4,71l-41.7-40.3l-67.3,93
		L313.8,666l-52.7,52l-0.3-0.4L368,488l111.2,28.8L553,293l71.2,148.8l55-110l78.8-60l48.8,52.5l108.8-28.8l90,96.2L1063,433
		l62.5-47.5l71.2,36.2l85,16.2l63.8,25l45.4,100.4L1324.8,515.2z"/>
	
		<linearGradient id="SVGID_3_" gradientUnits="userSpaceOnUse" x1="1415.1387" y1="581.8135" x2="1415.1387" y2="292.9971" gradientTransform="matrix(-1 0 0 1 1930.4844 0)">
		<stop  offset="0" style="stop-color:#CED5E3"/>
		<stop  offset="1" style="stop-color:#DFE3EB"/>
	</linearGradient>
	<path class="st13" d="M479.2,516.7L553,293l0.8,1.7l-30.5,287c-0.1,0.1-0.2,0.1-0.2,0.1l-41.7-40.3l-4.6-25.4L479.2,516.7z"/>
	
		<linearGradient id="SVGID_4_" gradientUnits="userSpaceOnUse" x1="1173.167" y1="395.1309" x2="1305.1943" y2="395.1309" gradientTransform="matrix(-1 0 0 1 1930.4844 0)">
		<stop  offset="0" style="stop-color:#CED5E3"/>
		<stop  offset="1" style="stop-color:#DFE3EB"/>
	</linearGradient>
	<path class="st14" d="M625.3,439.6l53.9-107.9l78.1-59.5l-49.7,73.8l-26.6,170.9c-0.2,0.2-0.4,0.3-0.5,0.4c-4.1,3.4-40-8.2-50-7.1
		L625.3,439.6z"/>
	
		<linearGradient id="SVGID_5_" gradientUnits="userSpaceOnUse" x1="1078.707" y1="488.1436" x2="1078.707" y2="295.5273" gradientTransform="matrix(-1 0 0 1 1930.4844 0)">
		<stop  offset="0" style="stop-color:#CED5E3"/>
		<stop  offset="1" style="stop-color:#DFE3EB"/>
	</linearGradient>
	<path class="st15" d="M788.2,488.1l18.5-163.9l108.6-28.7L868,444.2C864.3,445.6,794.1,489.5,788.2,488.1z"/>
	
		<linearGradient id="SVGID_6_" gradientUnits="userSpaceOnUse" x1="835.5371" y1="524.7119" x2="835.5371" y2="385.4971" gradientTransform="matrix(-1 0 0 1 1930.4844 0)">
		<stop  offset="0" style="stop-color:#CED5E3"/>
		<stop  offset="1" style="stop-color:#DFE3EB"/>
	</linearGradient>
	<polygon class="st16" points="1065.6,483.8 1064.4,431.9 1125.5,385.5 1125.5,385.5 1091.2,524.7 1066.4,483 	"/>
	
		<linearGradient id="SVGID_7_" gradientUnits="userSpaceOnUse" x1="1616.9736" y1="717.9775" x2="1616.9736" y2="492.2139" gradientTransform="matrix(-1 0 0 1 1930.4844 0)">
		<stop  offset="0" style="stop-color:#CED5E3"/>
		<stop  offset="1" style="stop-color:#DFE3EB"/>
	</linearGradient>
	<polygon class="st17" points="261.1,718 261,717.9 283.1,669.8 366,492.2 315.5,665.5 313.8,666 	"/>
</g>
<g id="Layer_2">
	<linearGradient id="SVGID_8_" gradientUnits="userSpaceOnUse" x1="959.7529" y1="521.75" x2="959.7529" y2="1201">
		<stop  offset="0" style="stop-color:#E0E0E0"/>
		<stop  offset="1" style="stop-color:#969CA6"/>
	</linearGradient>
	<polygon class="st18" points="1640.3,1114.5 1416.9,830.1 1408.5,785.8 1403.4,812.8 1246.5,613 1199.1,645.7 1195.5,626.8 
		1190.8,651.5 1178.4,660.1 1170.5,618.8 1160.3,672.6 1139.4,687 1136.5,671.8 1132.7,691.6 1105.3,710.6 991.9,666.9 987.5,643.8 
		983.7,663.7 974.5,660.2 969.5,633.8 965.2,656.6 957.6,653.6 948.5,605.8 940.6,647.1 780.6,585.4 771.5,537.8 767.5,558.7 
		760.5,521.8 750.6,573.8 700.1,554.4 623.6,607.5 615.5,564.8 604.9,620.5 429.8,742.2 421.5,698.8 410.7,755.5 376.4,779.3 
		368.5,737.8 358.2,791.9 189,909.5 -0.5,679.8 0,1201 1920,1201 	"/>
</g>
<g id="Layer_3">
	<linearGradient id="SVGID_9_" gradientUnits="userSpaceOnUse" x1="959.8779" y1="677.75" x2="959.8779" y2="1200.999">
		<stop  offset="0" style="stop-color:#FCFCFC"/>
		<stop  offset="0.1611" style="stop-color:#F7F7F7"/>
		<stop  offset="0.3647" style="stop-color:#E7E8E9"/>
		<stop  offset="0.5911" style="stop-color:#CDCFD3"/>
		<stop  offset="0.8323" style="stop-color:#A9ADB3"/>
		<stop  offset="1" style="stop-color:#8C9199"/>
	</linearGradient>
	<polygon class="st19" points="1602.3,1065.3 1596.1,1032.7 1591.8,1055.3 1580.1,993.7 1568.5,1054.9 1566.7,1054.3 1559.1,1014.7 
		1552.4,1049.9 1534,1044.2 1439,979.2 1405,1018.8 1394.1,961.7 1377.1,1051.1 1371.1,1058.1 1361.1,1005.7 1350.4,1062.3 
		1139.1,929.4 1125.1,855.7 1114.1,913.7 1111.3,911.9 1090.5,802.8 1074.2,888.6 1007.7,846.8 989,858.2 974.5,781.8 956.2,878.2 
		937.2,889.7 924.5,822.8 908.4,907.3 870.2,930.5 577.7,794.3 393.9,911.9 198.1,833.7 178.5,730.8 167.6,788.3 158.5,740.8 
		148.4,794 133.5,715.8 117.2,801.4 67.2,781.4 47.5,677.8 30.6,766.8 -0.2,754.5 0,1200.5 1919.5,1201 1920,1163 	"/>
</g>
<g id="Layer_4">
	<polygon class="st24" points="52.5,846.9 113.6,1168 -8.6,1168 	"/>
	<polygon class="st24" points="124.1,887.9 185.2,1209 63,1209 	"/>
	<polygon class="st24" points="1510.8,954.5 1551.2,1167 1470.4,1167 	"/>
	<path class="st7" d="M0,1120.5c119,26.2,505.3,67.5,624,63.8s510-90,643.8-102.5s612,88.7,652.2,97.5c0,11.2-0.5,21.8-0.5,21.8
		L0,1200.5V1120.5z"/>
	<polygon class="st23" points="77.6,979 52.5,846.9 27.3,979 	"/>
	<polygon class="st23" points="124.1,887.9 99.9,1015 148.3,1015 	"/>
	<polygon class="st23" points="1527.7,1043 1510.8,954.5 1494,1043 	"/>
	<path class="st23" d="M1267.8,1081.8c-133.8,12.5-525,98.8-643.8,102.5s-505-37.5-624-63.8v22.8c126.6,13.9,579.4,56.7,579.4,56.7
		s720.4-36,725.7-36s272.1,1.8,279.3,5.3c5,2.5,178.6,21,280.2,31.6l55,0c0,0,0.5-10.5,0.5-21.8
		C1879.8,1170.5,1401.5,1069.2,1267.8,1081.8z"/>
</g>
<g id="Layer_5">
	<g>
		
			<use xlink:href="#New_Symbol"  width="30" height="28.3" x="-15" y="-14.1" transform="matrix(0.5107 0 0 -0.5107 591.1572 293.7012)" style="overflow:visible;"/>
		
			<use xlink:href="#New_Symbol"  width="30" height="28.3" x="-15" y="-14.1" transform="matrix(0.5107 0 0 -0.5107 167.8867 111.4404)" style="overflow:visible;"/>
		
			<use xlink:href="#New_Symbol"  width="30" height="28.3" x="-15" y="-14.1" transform="matrix(0.5107 0 0 -0.5107 352.582 117.2773)" style="overflow:visible;"/>
		
			<use xlink:href="#New_Symbol"  width="30" height="28.3" x="-15" y="-14.1" transform="matrix(0.5107 0 0 -0.5107 315.582 191.6719)" style="overflow:visible;"/>
		
			<use xlink:href="#New_Symbol"  width="30" height="28.3" x="-15" y="-14.1" transform="matrix(0.5107 0 0 -0.5107 924.8096 154.4844)" style="overflow:visible;"/>
		
			<use xlink:href="#New_Symbol"  width="30" height="28.3" x="-15" y="-14.1" transform="matrix(0.5107 0 0 -0.5107 854.2666 79.3643)" style="overflow:visible;"/>
		
			<use xlink:href="#New_Symbol"  width="30" height="28.3" x="-15" y="-14.1" transform="matrix(0.5107 0 0 -0.5107 874.0791 346.998)" style="overflow:visible;"/>
		
			<use xlink:href="#New_Symbol"  width="30" height="28.3" x="-15" y="-14.1" transform="matrix(0.5107 0 0 -0.5107 851.3086 383.0449)" style="overflow:visible;"/>
		
			<use xlink:href="#New_Symbol"  width="30" height="28.3" x="-15" y="-14.1" transform="matrix(0.5107 0 0 -0.5107 577.6582 375.5039)" style="overflow:visible;"/>
		
			<use xlink:href="#New_Symbol"  width="30" height="28.3" x="-15" y="-14.1" transform="matrix(0.5107 0 0 -0.5107 287.3877 333.6299)" style="overflow:visible;"/>
		
			<use xlink:href="#New_Symbol"  width="30" height="28.3" x="-15" y="-14.1" transform="matrix(0.5107 0 0 -0.5107 279.2383 206.8506)" style="overflow:visible;"/>
		
			<use xlink:href="#New_Symbol"  width="30" height="28.3" x="-15" y="-14.1" transform="matrix(0.5107 0 0 -0.5107 666.0605 175.9668)" style="overflow:visible;"/>
	</g>
	<g>
		
			<use xlink:href="#New_Symbol"  width="30" height="28.3" x="-15" y="-14.1" transform="matrix(0.5107 0 0 -0.5107 499.1572 248.7012)" style="overflow:visible;"/>
		
			<use xlink:href="#New_Symbol"  width="30" height="28.3" x="-15" y="-14.1" transform="matrix(0.5107 0 0 -0.5107 75.8867 66.4404)" style="overflow:visible;"/>
		
			<use xlink:href="#New_Symbol"  width="30" height="28.3" x="-15" y="-14.1" transform="matrix(0.5107 0 0 -0.5107 260.582 72.2773)" style="overflow:visible;"/>
		
			<use xlink:href="#New_Symbol"  width="30" height="28.3" x="-15" y="-14.1" transform="matrix(0.5107 0 0 -0.5107 223.582 146.6719)" style="overflow:visible;"/>
		
			<use xlink:href="#New_Symbol"  width="30" height="28.3" x="-15" y="-14.1" transform="matrix(0.5107 0 0 -0.5107 832.8096 109.4844)" style="overflow:visible;"/>
		
			<use xlink:href="#New_Symbol"  width="30" height="28.3" x="-15" y="-14.1" transform="matrix(0.5107 0 0 -0.5107 762.2666 34.3643)" style="overflow:visible;"/>
		
			<use xlink:href="#New_Symbol"  width="30" height="28.3" x="-15" y="-14.1" transform="matrix(0.5107 0 0 -0.5107 782.0791 301.998)" style="overflow:visible;"/>
		
			<use xlink:href="#New_Symbol"  width="30" height="28.3" x="-15" y="-14.1" transform="matrix(0.5107 0 0 -0.5107 759.3086 338.0449)" style="overflow:visible;"/>
		
			<use xlink:href="#New_Symbol"  width="30" height="28.3" x="-15" y="-14.1" transform="matrix(0.5107 0 0 -0.5107 485.6582 330.5039)" style="overflow:visible;"/>
		
			<use xlink:href="#New_Symbol"  width="30" height="28.3" x="-15" y="-14.1" transform="matrix(0.5107 0 0 -0.5107 195.3877 288.6299)" style="overflow:visible;"/>
		
			<use xlink:href="#New_Symbol"  width="30" height="28.3" x="-15" y="-14.1" transform="matrix(0.5107 0 0 -0.5107 187.2383 161.8506)" style="overflow:visible;"/>
		
			<use xlink:href="#New_Symbol"  width="30" height="28.3" x="-15" y="-14.1" transform="matrix(0.5107 0 0 -0.5107 574.0605 130.9668)" style="overflow:visible;"/>
	</g>
	<g>
		
			<use xlink:href="#New_Symbol"  width="30" height="28.3" x="-15" y="-14.1" transform="matrix(0.5107 0 0 -0.5107 1454.1572 276.7012)" style="overflow:visible;"/>
		
			<use xlink:href="#New_Symbol"  width="30" height="28.3" x="-15" y="-14.1" transform="matrix(0.5107 0 0 -0.5107 1030.8867 94.4404)" style="overflow:visible;"/>
		
			<use xlink:href="#New_Symbol"  width="30" height="28.3" x="-15" y="-14.1" transform="matrix(0.5107 0 0 -0.5107 1215.582 100.2773)" style="overflow:visible;"/>
		
			<use xlink:href="#New_Symbol"  width="30" height="28.3" x="-15" y="-14.1" transform="matrix(0.5107 0 0 -0.5107 1178.582 174.6719)" style="overflow:visible;"/>
		
			<use xlink:href="#New_Symbol"  width="30" height="28.3" x="-15" y="-14.1" transform="matrix(0.5107 0 0 -0.5107 1787.8096 137.4844)" style="overflow:visible;"/>
		
			<use xlink:href="#New_Symbol"  width="30" height="28.3" x="-15" y="-14.1" transform="matrix(0.5107 0 0 -0.5107 1717.2666 62.3643)" style="overflow:visible;"/>
		
			<use xlink:href="#New_Symbol"  width="30" height="28.3" x="-15" y="-14.1" transform="matrix(0.5107 0 0 -0.5107 1737.0791 329.998)" style="overflow:visible;"/>
		
			<use xlink:href="#New_Symbol"  width="30" height="28.3" x="-15" y="-14.1" transform="matrix(0.5107 0 0 -0.5107 1714.3086 366.0449)" style="overflow:visible;"/>
		
			<use xlink:href="#New_Symbol"  width="30" height="28.3" x="-15" y="-14.1" transform="matrix(0.5107 0 0 -0.5107 1440.6582 358.5039)" style="overflow:visible;"/>
		
			<use xlink:href="#New_Symbol"  width="30" height="28.3" x="-15" y="-14.1" transform="matrix(0.5107 0 0 -0.5107 1150.3877 316.6299)" style="overflow:visible;"/>
		
			<use xlink:href="#New_Symbol"  width="30" height="28.3" x="-15" y="-14.1" transform="matrix(0.5107 0 0 -0.5107 1142.2383 189.8506)" style="overflow:visible;"/>
		
			<use xlink:href="#New_Symbol"  width="30" height="28.3" x="-15" y="-14.1" transform="matrix(0.5107 0 0 -0.5107 1529.0605 158.9668)" style="overflow:visible;"/>
	</g>
	<g>
		
			<use xlink:href="#New_Symbol"  width="30" height="28.3" x="-15" y="-14.1" transform="matrix(0.5107 0 0 -0.5107 976.1572 610.7012)" style="overflow:visible;"/>
		
			<use xlink:href="#New_Symbol"  width="30" height="28.3" x="-15" y="-14.1" transform="matrix(0.5107 0 0 -0.5107 552.8867 428.4404)" style="overflow:visible;"/>
		
			<use xlink:href="#New_Symbol"  width="30" height="28.3" x="-15" y="-14.1" transform="matrix(0.5107 0 0 -0.5107 737.582 434.2773)" style="overflow:visible;"/>
		
			<use xlink:href="#New_Symbol"  width="30" height="28.3" x="-15" y="-14.1" transform="matrix(0.5107 0 0 -0.5107 700.582 508.6719)" style="overflow:visible;"/>
		
			<use xlink:href="#New_Symbol"  width="30" height="28.3" x="-15" y="-14.1" transform="matrix(0.5107 0 0 -0.5107 1309.8096 471.4844)" style="overflow:visible;"/>
		
			<use xlink:href="#New_Symbol"  width="30" height="28.3" x="-15" y="-14.1" transform="matrix(0.5107 0 0 -0.5107 1239.2666 396.3643)" style="overflow:visible;"/>
		
			<use xlink:href="#New_Symbol"  width="30" height="28.3" x="-15" y="-14.1" transform="matrix(0.5107 0 0 -0.5107 1259.0791 663.998)" style="overflow:visible;"/>
		
			<use xlink:href="#New_Symbol"  width="30" height="28.3" x="-15" y="-14.1" transform="matrix(0.5107 0 0 -0.5107 1236.3086 700.0449)" style="overflow:visible;"/>
		
			<use xlink:href="#New_Symbol"  width="30" height="28.3" x="-15" y="-14.1" transform="matrix(0.5107 0 0 -0.5107 962.6582 692.5039)" style="overflow:visible;"/>
		
			<use xlink:href="#New_Symbol"  width="30" height="28.3" x="-15" y="-14.1" transform="matrix(0.5107 0 0 -0.5107 672.3877 650.6299)" style="overflow:visible;"/>
		
			<use xlink:href="#New_Symbol"  width="30" height="28.3" x="-15" y="-14.1" transform="matrix(0.5107 0 0 -0.5107 664.2383 523.8506)" style="overflow:visible;"/>
		
			<use xlink:href="#New_Symbol"  width="30" height="28.3" x="-15" y="-14.1" transform="matrix(0.5107 0 0 -0.5107 1051.0605 492.9668)" style="overflow:visible;"/>
	</g>
	<g>
		
			<use xlink:href="#New_Symbol"  width="30" height="28.3" x="-15" y="-14.1" transform="matrix(0.5107 0 0 -0.5107 1278.1572 747.7012)" style="overflow:visible;"/>
		
			<use xlink:href="#New_Symbol"  width="30" height="28.3" x="-15" y="-14.1" transform="matrix(0.5107 0 0 -0.5107 854.8867 565.4404)" style="overflow:visible;"/>
		
			<use xlink:href="#New_Symbol"  width="30" height="28.3" x="-15" y="-14.1" transform="matrix(0.5107 0 0 -0.5107 1039.582 571.2773)" style="overflow:visible;"/>
		
			<use xlink:href="#New_Symbol"  width="30" height="28.3" x="-15" y="-14.1" transform="matrix(0.5107 0 0 -0.5107 1002.582 645.6719)" style="overflow:visible;"/>
		
			<use xlink:href="#New_Symbol"  width="30" height="28.3" x="-15" y="-14.1" transform="matrix(0.5107 0 0 -0.5107 1611.8096 608.4844)" style="overflow:visible;"/>
		
			<use xlink:href="#New_Symbol"  width="30" height="28.3" x="-15" y="-14.1" transform="matrix(0.5107 0 0 -0.5107 1541.2666 533.3643)" style="overflow:visible;"/>
		
			<use xlink:href="#New_Symbol"  width="30" height="28.3" x="-15" y="-14.1" transform="matrix(0.5107 0 0 -0.5107 1561.0791 800.998)" style="overflow:visible;"/>
		
			<use xlink:href="#New_Symbol"  width="30" height="28.3" x="-15" y="-14.1" transform="matrix(0.5107 0 0 -0.5107 1538.3086 837.0449)" style="overflow:visible;"/>
		
			<use xlink:href="#New_Symbol"  width="30" height="28.3" x="-15" y="-14.1" transform="matrix(0.5107 0 0 -0.5107 1264.6582 829.5039)" style="overflow:visible;"/>
		
			<use xlink:href="#New_Symbol"  width="30" height="28.3" x="-15" y="-14.1" transform="matrix(0.5107 0 0 -0.5107 974.3877 787.6299)" style="overflow:visible;"/>
		
			<use xlink:href="#New_Symbol"  width="30" height="28.3" x="-15" y="-14.1" transform="matrix(0.5107 0 0 -0.5107 966.2383 660.8506)" style="overflow:visible;"/>
		
			<use xlink:href="#New_Symbol"  width="30" height="28.3" x="-15" y="-14.1" transform="matrix(0.5107 0 0 -0.5107 1353.0605 629.9668)" style="overflow:visible;"/>
	</g>
	<g>
		
			<use xlink:href="#New_Symbol"  width="30" height="28.3" x="-15" y="-14.1" transform="matrix(0.5107 0 0 -0.5107 1459.1572 384.7012)" style="overflow:visible;"/>
		
			<use xlink:href="#New_Symbol"  width="30" height="28.3" x="-15" y="-14.1" transform="matrix(0.5107 0 0 -0.5107 1035.8867 202.4404)" style="overflow:visible;"/>
		
			<use xlink:href="#New_Symbol"  width="30" height="28.3" x="-15" y="-14.1" transform="matrix(0.5107 0 0 -0.5107 1220.582 208.2773)" style="overflow:visible;"/>
		
			<use xlink:href="#New_Symbol"  width="30" height="28.3" x="-15" y="-14.1" transform="matrix(0.5107 0 0 -0.5107 1183.582 282.6719)" style="overflow:visible;"/>
		
			<use xlink:href="#New_Symbol"  width="30" height="28.3" x="-15" y="-14.1" transform="matrix(0.5107 0 0 -0.5107 1792.8096 245.4844)" style="overflow:visible;"/>
		
			<use xlink:href="#New_Symbol"  width="30" height="28.3" x="-15" y="-14.1" transform="matrix(0.5107 0 0 -0.5107 1722.2666 170.3643)" style="overflow:visible;"/>
		
			<use xlink:href="#New_Symbol"  width="30" height="28.3" x="-15" y="-14.1" transform="matrix(0.5107 0 0 -0.5107 1742.0791 437.998)" style="overflow:visible;"/>
		
			<use xlink:href="#New_Symbol"  width="30" height="28.3" x="-15" y="-14.1" transform="matrix(0.5107 0 0 -0.5107 1719.3086 474.0449)" style="overflow:visible;"/>
		
			<use xlink:href="#New_Symbol"  width="30" height="28.3" x="-15" y="-14.1" transform="matrix(0.5107 0 0 -0.5107 1445.6582 466.5039)" style="overflow:visible;"/>
		
			<use xlink:href="#New_Symbol"  width="30" height="28.3" x="-15" y="-14.1" transform="matrix(0.5107 0 0 -0.5107 1155.3877 424.6299)" style="overflow:visible;"/>
		
			<use xlink:href="#New_Symbol"  width="30" height="28.3" x="-15" y="-14.1" transform="matrix(0.5107 0 0 -0.5107 1147.2383 297.8506)" style="overflow:visible;"/>
		
			<use xlink:href="#New_Symbol"  width="30" height="28.3" x="-15" y="-14.1" transform="matrix(0.5107 0 0 -0.5107 1534.0605 266.9668)" style="overflow:visible;"/>
	</g>
	<g>
		
			<use xlink:href="#New_Symbol"  width="30" height="28.3" x="-15" y="-14.1" transform="matrix(0.7751 0 0 -0.7751 98.8926 858.3125)" style="overflow:visible;"/>
		
			<use xlink:href="#New_Symbol"  width="30" height="28.3" x="-15" y="-14.1" transform="matrix(0.7751 0 0 -0.7751 181.4551 756.6855)" style="overflow:visible;"/>
		
			<use xlink:href="#New_Symbol"  width="30" height="28.3" x="-15" y="-14.1" transform="matrix(0.7751 0 0 -0.7751 168.4355 602.4043)" style="overflow:visible;"/>
		
			<use xlink:href="#New_Symbol"  width="30" height="28.3" x="-15" y="-14.1" transform="matrix(0.7751 0 0 -0.7751 476.8223 474.6582)" style="overflow:visible;"/>
		
			<use xlink:href="#New_Symbol"  width="30" height="28.3" x="-15" y="-14.1" transform="matrix(0.7751 0 0 -0.7751 541.584 420.9736)" style="overflow:visible;"/>
		
			<use xlink:href="#New_Symbol"  width="30" height="28.3" x="-15" y="-14.1" transform="matrix(0.7751 0 0 -0.7751 1170.2051 406.7031)" style="overflow:visible;"/>
		
			<use xlink:href="#New_Symbol"  width="30" height="28.3" x="-15" y="-14.1" transform="matrix(0.7751 0 0 -0.7751 1140.1924 658.2402)" style="overflow:visible;"/>
		
			<use xlink:href="#New_Symbol"  width="30" height="28.3" x="-15" y="-14.1" transform="matrix(0.7751 0 0 -0.7751 781.1113 699.5195)" style="overflow:visible;"/>
		
			<use xlink:href="#New_Symbol"  width="30" height="28.3" x="-15" y="-14.1" transform="matrix(0.7751 0 0 -0.7751 1255.1738 880.3047)" style="overflow:visible;"/>
		
			<use xlink:href="#New_Symbol"  width="30" height="28.3" x="-15" y="-14.1" transform="matrix(0.7751 0 0 -0.7751 1080.3027 987.2734)" style="overflow:visible;"/>
		
			<use xlink:href="#New_Symbol"  width="30" height="28.3" x="-15" y="-14.1" transform="matrix(0.7751 0 0 -0.7751 817.1953 1053.6211)" style="overflow:visible;"/>
		
			<use xlink:href="#New_Symbol"  width="30" height="28.3" x="-15" y="-14.1" transform="matrix(0.7751 0 0 -0.7751 417.6152 903.6875)" style="overflow:visible;"/>
		
			<use xlink:href="#New_Symbol"  width="30" height="28.3" x="-15" y="-14.1" transform="matrix(0.7751 0 0 -0.7751 427.8086 698.7832)" style="overflow:visible;"/>
		
			<use xlink:href="#New_Symbol"  width="30" height="28.3" x="-15" y="-14.1" transform="matrix(0.7751 0 0 -0.7751 284.873 592.2969)" style="overflow:visible;"/>
		
			<use xlink:href="#New_Symbol"  width="30" height="28.3" x="-15" y="-14.1" transform="matrix(0.7751 0 0 -0.7751 164.0898 438.7451)" style="overflow:visible;"/>
		
			<use xlink:href="#New_Symbol"  width="30" height="28.3" x="-15" y="-14.1" transform="matrix(0.7751 0 0 -0.7751 84.1172 366.3027)" style="overflow:visible;"/>
		
			<use xlink:href="#New_Symbol"  width="30" height="28.3" x="-15" y="-14.1" transform="matrix(0.7751 0 0 -0.7751 193.748 279.7705)" style="overflow:visible;"/>
		
			<use xlink:href="#New_Symbol"  width="30" height="28.3" x="-15" y="-14.1" transform="matrix(0.7751 0 0 -0.7751 755.0078 324.5566)" style="overflow:visible;"/>
		
			<use xlink:href="#New_Symbol"  width="30" height="28.3" x="-15" y="-14.1" transform="matrix(0.7751 0 0 -0.7751 1049.0977 336.5566)" style="overflow:visible;"/>
		
			<use xlink:href="#New_Symbol"  width="30" height="28.3" x="-15" y="-14.1" transform="matrix(0.7751 0 0 -0.7751 1007.5293 478.9863)" style="overflow:visible;"/>
		
			<use xlink:href="#New_Symbol"  width="30" height="28.3" x="-15" y="-14.1" transform="matrix(0.7751 0 0 -0.7751 1350.2871 286.0605)" style="overflow:visible;"/>
		
			<use xlink:href="#New_Symbol"  width="30" height="28.3" x="-15" y="-14.1" transform="matrix(0.7751 0 0 -0.7751 1307.9492 432.2744)" style="overflow:visible;"/>
		
			<use xlink:href="#New_Symbol"  width="30" height="28.3" x="-15" y="-14.1" transform="matrix(0.7751 0 0 -0.7751 1304.0156 647.3076)" style="overflow:visible;"/>
		
			<use xlink:href="#New_Symbol"  width="30" height="28.3" x="-15" y="-14.1" transform="matrix(0.7751 0 0 -0.7751 1012.1406 694.1211)" style="overflow:visible;"/>
		
			<use xlink:href="#New_Symbol"  width="30" height="28.3" x="-15" y="-14.1" transform="matrix(0.7751 0 0 -0.7751 945.6875 812.7158)" style="overflow:visible;"/>
		
			<use xlink:href="#New_Symbol"  width="30" height="28.3" x="-15" y="-14.1" transform="matrix(0.7751 0 0 -0.7751 413.3896 790.2607)" style="overflow:visible;"/>
		
			<use xlink:href="#New_Symbol"  width="30" height="28.3" x="-15" y="-14.1" transform="matrix(0.7751 0 0 -0.7751 555.6309 855.623)" style="overflow:visible;"/>
		
			<use xlink:href="#New_Symbol"  width="30" height="28.3" x="-15" y="-14.1" transform="matrix(0.7751 0 0 -0.7751 230.3926 964.1758)" style="overflow:visible;"/>
	</g>
	<g>
		
			<use xlink:href="#New_Symbol"  width="30" height="28.3" x="-15" y="-14.1" transform="matrix(0.7751 0 0 -0.7751 489.8926 867.3115)" style="overflow:visible;"/>
		
			<use xlink:href="#New_Symbol"  width="30" height="28.3" x="-15" y="-14.1" transform="matrix(0.7751 0 0 -0.7751 572.4551 765.6855)" style="overflow:visible;"/>
		
			<use xlink:href="#New_Symbol"  width="30" height="28.3" x="-15" y="-14.1" transform="matrix(0.7751 0 0 -0.7751 559.4355 611.4043)" style="overflow:visible;"/>
		
			<use xlink:href="#New_Symbol"  width="30" height="28.3" x="-15" y="-14.1" transform="matrix(0.7751 0 0 -0.7751 867.8223 483.6582)" style="overflow:visible;"/>
		
			<use xlink:href="#New_Symbol"  width="30" height="28.3" x="-15" y="-14.1" transform="matrix(0.7751 0 0 -0.7751 932.584 429.9736)" style="overflow:visible;"/>
		
			<use xlink:href="#New_Symbol"  width="30" height="28.3" x="-15" y="-14.1" transform="matrix(0.7751 0 0 -0.7751 1561.2051 415.7031)" style="overflow:visible;"/>
		
			<use xlink:href="#New_Symbol"  width="30" height="28.3" x="-15" y="-14.1" transform="matrix(0.7751 0 0 -0.7751 1531.1924 667.2402)" style="overflow:visible;"/>
		
			<use xlink:href="#New_Symbol"  width="30" height="28.3" x="-15" y="-14.1" transform="matrix(0.7751 0 0 -0.7751 1172.1113 708.5195)" style="overflow:visible;"/>
		
			<use xlink:href="#New_Symbol"  width="30" height="28.3" x="-15" y="-14.1" transform="matrix(0.7751 0 0 -0.7751 1646.1738 889.3047)" style="overflow:visible;"/>
		
			<use xlink:href="#New_Symbol"  width="30" height="28.3" x="-15" y="-14.1" transform="matrix(0.7751 0 0 -0.7751 1471.3027 996.2734)" style="overflow:visible;"/>
		
			<use xlink:href="#New_Symbol"  width="30" height="28.3" x="-15" y="-14.1" transform="matrix(0.7751 0 0 -0.7751 1208.1953 1062.6201)" style="overflow:visible;"/>
		
			<use xlink:href="#New_Symbol"  width="30" height="28.3" x="-15" y="-14.1" transform="matrix(0.7751 0 0 -0.7751 808.6152 912.6875)" style="overflow:visible;"/>
		
			<use xlink:href="#New_Symbol"  width="30" height="28.3" x="-15" y="-14.1" transform="matrix(0.7751 0 0 -0.7751 818.8086 707.7832)" style="overflow:visible;"/>
		
			<use xlink:href="#New_Symbol"  width="30" height="28.3" x="-15" y="-14.1" transform="matrix(0.7751 0 0 -0.7751 675.873 601.2969)" style="overflow:visible;"/>
		
			<use xlink:href="#New_Symbol"  width="30" height="28.3" x="-15" y="-14.1" transform="matrix(0.7751 0 0 -0.7751 555.0898 447.7451)" style="overflow:visible;"/>
		
			<use xlink:href="#New_Symbol"  width="30" height="28.3" x="-15" y="-14.1" transform="matrix(0.7751 0 0 -0.7751 475.1172 375.3027)" style="overflow:visible;"/>
		
			<use xlink:href="#New_Symbol"  width="30" height="28.3" x="-15" y="-14.1" transform="matrix(0.7751 0 0 -0.7751 584.748 288.7705)" style="overflow:visible;"/>
		
			<use xlink:href="#New_Symbol"  width="30" height="28.3" x="-15" y="-14.1" transform="matrix(0.7751 0 0 -0.7751 1146.0078 333.5566)" style="overflow:visible;"/>
		
			<use xlink:href="#New_Symbol"  width="30" height="28.3" x="-15" y="-14.1" transform="matrix(0.7751 0 0 -0.7751 1440.0977 345.5566)" style="overflow:visible;"/>
		
			<use xlink:href="#New_Symbol"  width="30" height="28.3" x="-15" y="-14.1" transform="matrix(0.7751 0 0 -0.7751 1398.5293 487.9863)" style="overflow:visible;"/>
		
			<use xlink:href="#New_Symbol"  width="30" height="28.3" x="-15" y="-14.1" transform="matrix(0.7751 0 0 -0.7751 1741.2871 295.0605)" style="overflow:visible;"/>
		
			<use xlink:href="#New_Symbol"  width="30" height="28.3" x="-15" y="-14.1" transform="matrix(0.7751 0 0 -0.7751 1698.9492 441.2744)" style="overflow:visible;"/>
		
			<use xlink:href="#New_Symbol"  width="30" height="28.3" x="-15" y="-14.1" transform="matrix(0.7751 0 0 -0.7751 1695.0156 656.3076)" style="overflow:visible;"/>
		
			<use xlink:href="#New_Symbol"  width="30" height="28.3" x="-15" y="-14.1" transform="matrix(0.7751 0 0 -0.7751 1403.1406 703.1211)" style="overflow:visible;"/>
		
			<use xlink:href="#New_Symbol"  width="30" height="28.3" x="-15" y="-14.1" transform="matrix(0.7751 0 0 -0.7751 1336.6875 821.7158)" style="overflow:visible;"/>
		
			<use xlink:href="#New_Symbol"  width="30" height="28.3" x="-15" y="-14.1" transform="matrix(0.7751 0 0 -0.7751 804.3896 799.2607)" style="overflow:visible;"/>
		
			<use xlink:href="#New_Symbol"  width="30" height="28.3" x="-15" y="-14.1" transform="matrix(0.7751 0 0 -0.7751 946.6309 864.623)" style="overflow:visible;"/>
		
			<use xlink:href="#New_Symbol"  width="30" height="28.3" x="-15" y="-14.1" transform="matrix(0.7751 0 0 -0.7751 621.3926 973.1748)" style="overflow:visible;"/>
	</g>
</g>
</svg>
